<?xml version="1.0" encoding="UTF-8"?>
<svg version="1.1" xmlns="http://www.w3.org/2000/svg" width="200" height="175">
<path d="M0 0 C1.04285156 -0.020625 2.08570313 -0.04125 3.16015625 -0.0625 C12.02651202 -0.10677643 19.806492 1.34621297 27.5 5.9375 C28.24507813 6.37449219 28.99015625 6.81148438 29.7578125 7.26171875 C30.29148437 7.58785156 30.82515625 7.91398438 31.375 8.25 C31.375 8.91 31.375 9.57 31.375 10.25 C32.055625 10.435625 32.73625 10.62125 33.4375 10.8125 C43.15220386 15.56650402 49.24470202 26.34303114 52.64257812 36.2253418 C57.41713041 51.54601705 56.50274857 65.4466495 50.375 80.25 C49.11380433 82.63701529 47.76763847 84.93488733 46.375 87.25 C47.09945312 87.806875 47.82390625 88.36375 48.5703125 88.9375 C61.07961855 98.81151224 70.65486387 112.18433115 73.375 128.25 C73.5943107 132.51863407 73.56012965 136.78876624 73.5625 141.0625 C73.57474609 142.21298828 73.58699219 143.36347656 73.59960938 144.54882812 C73.61406279 152.95589923 72.56908826 159.73947916 69.375 167.5625 C69.045 168.38363281 68.715 169.20476562 68.375 170.05078125 C67.375 172.25 67.375 172.25 65.375 175.25 C63.49560547 175.59057617 63.49560547 175.59057617 61.2421875 175.54296875 C60.43652344 175.53330078 59.63085938 175.52363281 58.80078125 175.51367188 C57.95902344 175.48853516 57.11726563 175.46339844 56.25 175.4375 C55.40050781 175.42396484 54.55101562 175.41042969 53.67578125 175.39648438 C51.57525163 175.36108219 49.47504707 175.30727401 47.375 175.25 C48.46415752 173.03520601 49.5908457 170.85618682 50.77734375 168.69140625 C58.83918523 153.57288927 60.33623932 139.585788 55.375 123.25 C50.82518936 110.63629734 40.78831505 100.69611199 28.78173828 95.02514648 C21.2052896 91.77558169 13.63456407 89.59347129 5.625 87.6875 C-15.23797016 82.71957727 -15.23797016 82.71957727 -21.625 75.25 C-26.76281136 66.83509814 -29.09882607 58.44573903 -27.09375 48.65625 C-24.7403753 40.16363695 -21.3421801 35.33485391 -13.94140625 30.546875 C-6.72470596 26.50649642 0.61039394 26.19315556 8.71875 27.6796875 C15.39089833 29.82430661 21.08786191 34.76026168 24.75 40.6875 C28.70875814 49.36631591 29.51102601 57.00326576 26.2421875 66.09375 C25.11296037 68.90155799 23.8093317 71.58624112 22.375 74.25 C20.395 73.755 20.395 73.755 18.375 73.25 C19.365 77.21 20.355 81.17 21.375 85.25 C25.665 85.25 29.955 85.25 34.375 85.25 C33.715 84.92 33.055 84.59 32.375 84.25 C33.00162418 81.10279766 34.10918772 78.89157142 35.8125 76.1875 C41.79978183 65.64919181 41.40314007 53.57995451 38.375 42.1953125 C37.12033015 38.49991771 35.41702369 35.29998505 33.36328125 31.9921875 C32.375 30.25 32.375 30.25 32.375 28.25 C31.715 28.25 31.055 28.25 30.375 28.25 C29.67375 27.363125 28.9725 26.47625 28.25 25.5625 C21.81776898 17.61128731 12.22967366 14.83373902 2.4375 13.375 C-2.43370507 12.97609817 -6.49700022 14.04162134 -11.12890625 15.48046875 C-13.93374304 16.34518369 -16.71832156 16.85720562 -19.625 17.25 C-19.625 17.91 -19.625 18.57 -19.625 19.25 C-20.615 19.25 -21.605 19.25 -22.625 19.25 C-22.625 19.91 -22.625 20.57 -22.625 21.25 C-23.79129452 22.31860995 -25.01005932 23.3302998 -26.25 24.3125 C-33.72207367 30.71335602 -37.35023378 37.77453494 -39.625 47.25 C-39.80804688 47.91515625 -39.99109375 48.5803125 -40.1796875 49.265625 C-42.64893181 60.26892423 -38.77591745 71.20306398 -33 80.5 C-30.84030689 83.96896687 -30.84030689 83.96896687 -27.625 86.25 C-27.625 86.91 -27.625 87.57 -27.625 88.25 C-27.109375 88.476875 -26.59375 88.70375 -26.0625 88.9375 C-22.70096873 90.7475553 -19.69588856 92.98996404 -16.625 95.25 C-16.955 95.91 -17.285 96.57 -17.625 97.25 C-18.285 97.25 -18.945 97.25 -19.625 97.25 C-19.625 97.91 -19.625 98.57 -19.625 99.25 C-21.234375 100.80078125 -21.234375 100.80078125 -23.375 102.5625 C-31.58792085 109.33055515 -38.36872211 120.4174945 -40.4140625 131.0078125 C-41.35341251 140.9927552 -40.7009046 149.73241038 -37.625 159.25 C-36.75 162.75 -36.75 162.75 -36.625 165.25 C-37.615 166.24 -38.605 167.23 -39.625 168.25 C-33.685 169.24 -27.745 170.23 -21.625 171.25 C-21.295 169.6 -20.965 167.95 -20.625 166.25 C-19.81335167 164.12906977 -18.95706272 162.02481301 -18.0625 159.9375 C-17.60746094 158.86886719 -17.15242188 157.80023438 -16.68359375 156.69921875 C-16.33425781 155.89097656 -15.98492187 155.08273438 -15.625 154.25 C-18.595 155.24 -18.595 155.24 -21.625 156.25 C-26.32235622 145.83412316 -26.44874621 138.30480418 -22.88671875 127.40625 C-19.6091695 119.20730327 -13.10904217 112.09624354 -5 108.4375 C3.73717243 105.3633097 13.58004291 105.01542734 22.375 108.25 C28.14668949 111.2917087 32.61903644 114.91895495 36.375 120.25 C36.375 120.91 36.375 121.57 36.375 122.25 C37.035 122.25 37.695 122.25 38.375 122.25 C44.33320131 135.20261154 43.15321222 147.02459119 38.375 160.25 C37.715 160.25 37.055 160.25 36.375 160.25 C36.21 160.930625 36.045 161.61125 35.875 162.3125 C32.52771269 168.86760431 26.27120822 172.99760457 19.375 175.25 C15.76185608 175.61076355 15.76185608 175.61076355 11.87915039 175.59057617 C11.16611755 175.59101425 10.45308472 175.59145233 9.71844482 175.59190369 C7.38622643 175.58983115 5.05474741 175.56657435 2.72265625 175.54296875 C1.09598686 175.5373673 -0.53068762 175.5330998 -2.15736389 175.53010559 C-6.42027986 175.51869997 -10.68288485 175.48927019 -14.94567871 175.45599365 C-19.30293574 175.42519996 -23.66024344 175.41158046 -28.01757812 175.39648438 C-36.55352746 175.36439592 -45.08922495 175.31325205 -53.625 175.25 C-53.71872191 158.52466206 -53.78911493 141.79941018 -53.83224869 125.07387257 C-53.8528148 117.30672707 -53.88082047 109.53974538 -53.92675781 101.77270508 C-53.96680904 94.99761372 -53.99247599 88.22264107 -54.00135398 81.4474346 C-54.00653806 77.86479366 -54.01859563 74.28249213 -54.04792023 70.69996071 C-54.08050287 66.68629967 -54.08094781 62.67321694 -54.07910156 58.65942383 C-54.09348267 57.49056641 -54.10786377 56.32170898 -54.12268066 55.11743164 C-54.06512417 43.4807426 -50.95726846 33.01925194 -44.625 23.25 C-44.21894531 22.58613281 -43.81289063 21.92226563 -43.39453125 21.23828125 C-33.41296325 6.33910791 -17.10699386 0.08274241 0 0 Z " fill="#0A0A09" transform="translate(89.625,-0.25)"/>
</svg>
