<?xml version="1.0" encoding="UTF-8"?>
<svg version="1.1" xmlns="http://www.w3.org/2000/svg" width="512" height="576">
<path d="M0 0 C0.804375 -0.020625 1.60875 -0.04125 2.4375 -0.0625 C12.30239199 -0.12553445 20.38946754 3.14423203 28.9375 7.8125 C30.17101196 8.47439331 30.17101196 8.47439331 31.42944336 9.1496582 C38.09211664 12.75420224 44.62756112 16.55803155 51.1328125 20.4375 C56.82609478 23.82840615 62.56999773 27.13086378 68.3125 30.4375 C69.42069092 31.0759082 70.52888184 31.71431641 71.6706543 32.37207031 C73.94326127 33.6811599 76.21596712 34.99007787 78.48876953 36.29882812 C81.77380622 38.19169137 85.05716436 40.08742707 88.33984375 41.984375 C100.13430572 48.79879325 111.94691239 55.57987151 123.77972412 62.32736206 C132.81971708 67.48416608 141.82025321 72.70543769 150.80175781 77.96337891 C158.42406091 82.41916528 166.08045478 86.81371951 173.75 91.1875 C186.11416725 98.24019784 198.46450866 105.31567338 210.77636719 112.45947266 C213.85686933 114.23952329 216.94719637 116.00149794 220.0390625 117.76171875 C236.00445208 126.91426291 250.15462629 135.83016844 255.3671875 154.66796875 C256.73411648 161.61827689 257.02057404 168.372098 257.00871277 175.43243408 C257.0121111 176.93069249 257.0121111 176.93069249 257.01557809 178.45921874 C257.02188698 181.79216033 257.02109073 185.12506093 257.02026367 188.45800781 C257.02325711 190.85348055 257.02666007 193.24895281 257.03044128 195.64442444 C257.03835082 201.46804267 257.04149513 207.29164856 257.04205366 213.1152719 C257.04252988 217.85229851 257.04458992 222.58932179 257.04775429 227.32634735 C257.05655503 240.77599035 257.06117459 254.2256254 257.06042381 267.6752713 C257.06036388 268.76147832 257.06036388 268.76147832 257.06030273 269.86962891 C257.06024141 270.95717223 257.06024141 270.95717223 257.06017885 272.06668612 C257.05977259 283.81099636 257.06933868 295.55527451 257.0834411 307.29957548 C257.09782889 319.37746151 257.10470996 331.45533191 257.10384732 343.53322673 C257.10351618 350.30641839 257.10622715 357.07957641 257.11702538 363.85276031 C257.12672818 370.22543007 257.12677053 376.59802892 257.11950874 382.97070122 C257.11846561 385.30387666 257.12080962 387.63705657 257.1268692 389.97022438 C257.21853274 427.72216423 257.21853274 427.72216423 243.66162109 441.62402344 C236.68420709 447.97406133 228.15780442 452.55663194 220 457.1875 C218.87867676 457.82937256 217.75735352 458.47124512 216.60205078 459.13256836 C213.62982918 460.83390203 210.65440894 462.52955335 207.67797852 464.22351074 C202.95378499 466.91313453 198.23386094 469.61025679 193.51312256 472.30593872 C192.3337627 472.97923166 191.15427778 473.65230559 189.97467041 474.32516479 C181.91527118 478.92243945 173.88223777 483.56241286 165.875 488.25 C157.27977328 493.2818069 148.6518787 498.25389072 140 503.1875 C127.67474804 510.21603507 115.37777933 517.29240434 103.09277344 524.39111328 C96.60744661 528.13764427 90.11913842 531.87901086 83.63110352 535.62084961 C78.17547467 538.76761725 72.72119091 541.91667268 67.26953125 545.0703125 C60.80984118 548.80585844 54.34510355 552.53251952 47.875 556.25 C46.80926758 556.86246582 45.74353516 557.47493164 44.64550781 558.10595703 C41.53753831 559.88851079 38.4257594 561.66420445 35.3125 563.4375 C33.93058472 564.23051514 33.93058472 564.23051514 32.52075195 565.03955078 C18.14158413 573.19830094 5.0021232 577.67856555 -11.75 574.375 C-26.57353322 570.18405343 -40.16885796 560.55517858 -53.27734375 552.7265625 C-59.40214229 549.07302847 -65.57047343 545.49751041 -71.75 541.9375 C-73.37119751 541.00333252 -73.37119751 541.00333252 -75.02514648 540.05029297 C-83.68061183 535.06956392 -92.35387743 530.1202138 -101.02862549 525.17318726 C-110.06899337 520.01621317 -119.06989928 514.79476951 -128.05175781 509.53662109 C-136.26415175 504.73588404 -144.51761375 500.00859742 -152.78125 495.296875 C-162.31040194 489.86358661 -171.81868336 484.39510795 -181.31567383 478.90576172 C-188.82170751 474.57046381 -196.34439906 470.26527712 -203.87442017 465.97186279 C-207.92575261 463.66057597 -211.97371525 461.34339946 -216.02148438 459.02587891 C-217.97751199 457.90661011 -219.93442207 456.78888076 -221.89257812 455.67333984 C-224.24521321 454.33124782 -226.59224575 452.97993576 -228.9375 451.625 C-229.58211182 451.25979248 -230.22672363 450.89458496 -230.89086914 450.51831055 C-243.1339625 443.39035822 -250.72970394 432.99625595 -254.66202134 419.39213842 C-255.15449901 417.11351216 -255.25386559 415.07941968 -255.25922108 412.74922276 C-255.26590784 411.39600291 -255.26590784 411.39600291 -255.27272969 410.01544529 C-255.27254533 409.02820861 -255.27236097 408.04097192 -255.27217102 407.02381897 C-255.27584771 405.97193356 -255.2795244 404.92004816 -255.2833125 403.83628744 C-255.29435478 400.29978894 -255.29819416 396.76331981 -255.30200195 393.22680664 C-255.30826631 390.69561672 -255.31491308 388.16442773 -255.32191467 385.63323975 C-255.34114682 378.02780819 -255.35174487 370.42238178 -255.36064246 362.81693211 C-255.36502882 359.23180455 -255.37039484 355.64667845 -255.37563133 352.06155205 C-255.39264446 340.13664208 -255.40713636 328.21173302 -255.41438007 316.28681278 C-255.41628985 313.19308025 -255.4182102 310.09934773 -255.42016602 307.00561523 C-255.42064976 306.23671805 -255.4211335 305.46782087 -255.4216319 304.67562377 C-255.42992368 292.23331757 -255.45524577 279.79110778 -255.48774669 267.34884364 C-255.52087266 254.562562 -255.53883394 241.77632924 -255.54202431 228.99000448 C-255.54418461 221.81593342 -255.55286227 214.64200282 -255.57848549 207.46797371 C-255.6025544 200.71363376 -255.60598353 193.95958942 -255.59572411 187.2052002 C-255.59522955 184.73214821 -255.60152604 182.25908366 -255.61528015 179.78606987 C-255.78131873 148.15019439 -255.78131873 148.15019439 -244.125 135.25 C-237.81085305 128.94092126 -230.96309379 124.50151812 -223.1875 120.1875 C-221.45751117 119.20878122 -219.72753188 118.23004509 -217.99813843 117.25027466 C-216.21689447 116.24283499 -214.43311613 115.24000359 -212.64892578 114.23779297 C-207.1136161 111.12279141 -201.62204258 107.93186083 -196.125 104.75 C-193.95591624 103.49837366 -191.78664497 102.24707222 -189.6171875 100.99609375 C-185.30898349 98.51069098 -181.00177211 96.02358023 -176.6953125 93.53515625 C-164.88870516 86.71497363 -153.06473 79.9267674 -141.22027588 73.17263794 C-133.16236788 68.57605777 -125.13082214 63.9367584 -117.125 59.25 C-108.52977328 54.2181931 -99.9018787 49.24610928 -91.25 44.3125 C-82.15419551 39.1255731 -73.06840332 33.92227973 -64 28.6875 C-62.94554687 28.07994873 -61.89109375 27.47239746 -60.8046875 26.84643555 C-55.8270433 23.97615126 -50.85534093 21.09665584 -45.9012146 18.18598938 C-44.1505277 17.15815765 -42.3980591 16.13343225 -40.64501953 15.10961914 C-38.46010606 13.83238905 -36.27850382 12.54946873 -34.10107422 11.25952148 C-22.97067442 4.76902977 -12.91838969 0.08048841 0 0 Z " fill="#3A0191" transform="translate(255.125,-0.25)"/>
<path d="M0 0 C0.97195313 0.85078125 1.94390625 1.7015625 2.9453125 2.578125 C14.37851952 12.73506705 24.02292768 23.81081961 32.80908203 36.30810547 C33.88021881 37.82983116 34.96836931 39.33954692 36.05859375 40.84765625 C36.89583984 42.03681641 36.89583984 42.03681641 37.75 43.25 C38.21921875 43.91515625 38.6884375 44.5803125 39.171875 45.265625 C40 47 40 47 39 50 C36.86132812 51.46704102 36.86132812 51.46704102 34.03125 53.00390625 C32.99427979 53.57423584 31.95730957 54.14456543 30.88891602 54.73217773 C29.77057373 55.33618408 28.65223145 55.94019043 27.5 56.5625 C25.18543129 57.83454357 22.87162963 59.10798382 20.55859375 60.3828125 C19.42663574 61.00446289 18.29467773 61.62611328 17.12841797 62.26660156 C13.23289197 64.42504035 9.38842652 66.65857644 5.5625 68.9375 C-2.77071827 73.88662248 -11.16627985 78.72534387 -19.56616211 83.56030273 C-20.61296143 84.16302002 -21.65976074 84.7657373 -22.73828125 85.38671875 C-23.76775879 85.97630371 -24.79723633 86.56588867 -25.85791016 87.17333984 C-28.03854579 88.44105669 -30.2040421 89.73503486 -32.35693359 91.04931641 C-33.9649585 92.02457275 -33.9649585 92.02457275 -35.60546875 93.01953125 C-36.5699292 93.61483643 -37.53438965 94.2101416 -38.52807617 94.82348633 C-41 96 -41 96 -44 95 C-45.5078125 93.06640625 -45.5078125 93.06640625 -47.125 90.5625 C-60.47490157 70.94346227 -79.22943605 58.80334741 -102 53 C-102.67981934 52.81453613 -103.35963867 52.62907227 -104.06005859 52.43798828 C-110.30735195 50.85690911 -116.32677506 50.69003635 -122.75 50.75 C-124.34714844 50.76232666 -124.34714844 50.76232666 -125.9765625 50.77490234 C-149.58460449 51.11040783 -170.28471744 59.27031828 -188 75 C-188.68449219 75.60199219 -189.36898437 76.20398438 -190.07421875 76.82421875 C-203.08066451 89.01297047 -211.65443407 105.90161748 -216 123 C-216.22558594 123.85464844 -216.45117188 124.70929688 -216.68359375 125.58984375 C-221.9967834 149.37094775 -215.60888697 175.17217849 -203.19140625 195.71875 C-189.33624408 216.46444736 -168.0506707 230.91871412 -143.74609375 236.4921875 C-118.71694111 241.12062255 -92.86661032 236.75348202 -71.51953125 222.55200195 C-59.67780562 214.25723912 -50.46097787 204.37644564 -43 192 C-39.19439766 192.58066603 -36.473423 193.66421734 -33.17578125 195.6328125 C-32.24330566 196.18380615 -31.31083008 196.7347998 -30.35009766 197.30249023 C-29.34769043 197.90391846 -28.3452832 198.50534668 -27.3125 199.125 C-25.13974019 200.41086159 -22.96654843 201.69599352 -20.79296875 202.98046875 C-19.67067871 203.6461084 -18.54838867 204.31174805 -17.39208984 204.99755859 C-11.99304658 208.18475831 -6.55897879 211.31037174 -1.125 214.4375 C0.46671021 215.35776978 0.46671021 215.35776978 2.09057617 216.29663086 C7.21279494 219.25636623 12.34274491 222.20028034 17.49978638 225.09886169 C19.92046643 226.46067624 22.33665711 227.83034539 24.75250244 229.20071411 C26.46460422 230.16751253 28.1831754 231.12282562 29.90185547 232.07788086 C31.45090576 232.95778687 31.45090576 232.95778687 33.03125 233.85546875 C33.94455078 234.36746826 34.85785156 234.87946777 35.79882812 235.40698242 C38.14179623 237.10261983 38.97919025 238.32977281 40 241 C11.07080724 285.46084953 -30.30871463 319.05723579 -83.02441406 330.43701172 C-131.64653253 340.59805152 -184.07328448 332.49299302 -225.98828125 305.34912109 C-235.18166142 299.18375473 -243.86324015 292.4298823 -251.96484375 284.8828125 C-253.65909563 283.31538562 -255.37699061 281.86510793 -257.1875 280.4375 C-260.85824195 277.25619031 -263.87708548 273.71039348 -267 270 C-267.76441406 269.1234375 -268.52882813 268.246875 -269.31640625 267.34375 C-285.68708943 248.28304846 -297.79634204 226.18675208 -305.29785156 202.20703125 C-306.00685304 199.97845915 -306.77790413 197.77742459 -307.55078125 195.5703125 C-309.17536681 190.70448063 -310.1893076 185.7877679 -311.125 180.75 C-311.29386719 179.89792969 -311.46273437 179.04585937 -311.63671875 178.16796875 C-320.58878973 130.87001894 -310.14717907 80.06531343 -283.66357422 39.97705078 C-253.64768058 -3.73258028 -209.38853396 -33.47205767 -157.19091797 -43.59326172 C-101.76113511 -53.88365822 -42.24066344 -37.23341154 0 0 Z " fill="#FEFEFE" transform="translate(381,143)"/>
<path d="M0 0 C0.804375 -0.020625 1.60875 -0.04125 2.4375 -0.0625 C12.30239199 -0.12553445 20.38946754 3.14423203 28.9375 7.8125 C30.17101196 8.47439331 30.17101196 8.47439331 31.42944336 9.1496582 C38.09211664 12.75420224 44.62756112 16.55803155 51.1328125 20.4375 C56.82609478 23.82840615 62.56999773 27.13086378 68.3125 30.4375 C69.42069092 31.0759082 70.52888184 31.71431641 71.6706543 32.37207031 C73.94326127 33.6811599 76.21596712 34.99007787 78.48876953 36.29882812 C81.77380622 38.19169137 85.05716436 40.08742707 88.33984375 41.984375 C100.13430572 48.79879325 111.94691239 55.57987151 123.77972412 62.32736206 C132.81971708 67.48416608 141.82025321 72.70543769 150.80175781 77.96337891 C158.42406091 82.41916528 166.08045478 86.81371951 173.75 91.1875 C186.11416725 98.24019784 198.46450866 105.31567338 210.77636719 112.45947266 C213.85686933 114.23952329 216.94719637 116.00149794 220.0390625 117.76171875 C244.51412964 131.7972315 244.51412964 131.7972315 249.875 143.25 C243.36094555 147.77233582 236.61875383 151.78474282 229.71603394 155.68301392 C227.25737627 157.07162245 224.80300722 158.46773623 222.3483429 159.86338806 C221.07680765 160.58629037 219.80506795 161.30883318 218.53312683 162.03102112 C212.10963125 165.67948356 205.71004816 169.36872583 199.3125 173.0625 C198.24700928 173.67464355 197.18151855 174.28678711 196.08374023 174.91748047 C191.08006575 177.79628569 186.10081197 180.70434193 181.16796875 183.703125 C180.29019775 184.23059326 179.41242676 184.75806152 178.50805664 185.30151367 C176.88318387 186.2804232 175.26587527 187.2720454 173.65795898 188.27856445 C172.59363647 188.91604614 172.59363647 188.91604614 171.5078125 189.56640625 C170.89824707 189.94224854 170.28868164 190.31809082 169.66064453 190.70532227 C167.875 191.25 167.875 191.25 165.78930664 190.54833984 C162.73629551 188.47769666 161.10460548 185.38901403 159.1875 182.3125 C132.46184216 140.92399278 89.40960343 112.82854813 41.625 101.9375 C17.05587695 96.76027259 -8.47186979 96.35566367 -33.125 101.25 C-33.9917334 101.42160645 -34.8584668 101.59321289 -35.75146484 101.77001953 C-85.63754306 111.99205241 -129.3614981 141.84028644 -157.42163086 184.30517578 C-182.97777642 224.12226906 -192.64318282 271.4972947 -185.125 318.25 C-185.0120459 319.00555176 -184.8990918 319.76110352 -184.78271484 320.53955078 C-181.42685962 342.35036352 -173.00991954 362.64374115 -163.125 382.25 C-163.60517578 382.50990723 -164.08535156 382.76981445 -164.58007812 383.03759766 C-175.70166527 389.07181721 -186.69941216 395.28758002 -197.61279297 401.69042969 C-208.93227467 408.32605007 -220.33111881 414.82001414 -231.73144531 421.31542969 C-237.53202492 424.62217737 -243.32841263 427.93626056 -249.125 431.25 C-255.04215032 423.98248711 -255.56875174 415.34982109 -255.51268005 406.30229187 C-255.51806559 405.24527992 -255.52345113 404.18826796 -255.52899987 403.09922534 C-255.54322998 399.58124755 -255.53618776 396.06364866 -255.52905273 392.5456543 C-255.53475891 390.01357726 -255.54172413 387.4815028 -255.54985046 384.94943237 C-255.56591179 378.7995202 -255.56788771 372.64974636 -255.56263756 366.4998196 C-255.55858575 361.49729875 -255.56005139 356.49480801 -255.56538582 351.49228859 C-255.56613424 350.77857833 -255.56688266 350.06486806 -255.56765376 349.32953021 C-255.56918535 347.87931705 -255.57072369 346.4291039 -255.57226873 344.97889075 C-255.58597795 331.39699713 -255.58056753 317.81516119 -255.56908352 304.23326889 C-255.55915593 291.83013202 -255.57208637 279.42714444 -255.59601771 267.02403059 C-255.62044942 254.26466571 -255.63000641 241.50537025 -255.62336498 228.74598247 C-255.61988138 221.5921382 -255.6220476 214.43840862 -255.63961601 207.28458214 C-255.65593917 200.55476093 -255.65109322 193.82526907 -255.63231087 187.09543991 C-255.62863385 184.63206727 -255.6317074 182.16867341 -255.64219666 179.70532036 C-255.76632044 148.1335956 -255.76632044 148.1335956 -244.125 135.25 C-237.81085305 128.94092126 -230.96309379 124.50151812 -223.1875 120.1875 C-221.45751117 119.20878122 -219.72753188 118.23004509 -217.99813843 117.25027466 C-216.21689447 116.24283499 -214.43311613 115.24000359 -212.64892578 114.23779297 C-207.1136161 111.12279141 -201.62204258 107.93186083 -196.125 104.75 C-193.95591624 103.49837366 -191.78664497 102.24707222 -189.6171875 100.99609375 C-185.30898349 98.51069098 -181.00177211 96.02358023 -176.6953125 93.53515625 C-164.88870516 86.71497363 -153.06473 79.9267674 -141.22027588 73.17263794 C-133.16236788 68.57605777 -125.13082214 63.9367584 -117.125 59.25 C-108.52977328 54.2181931 -99.9018787 49.24610928 -91.25 44.3125 C-82.15419551 39.1255731 -73.06840332 33.92227973 -64 28.6875 C-62.94554687 28.07994873 -61.89109375 27.47239746 -60.8046875 26.84643555 C-55.8270433 23.97615126 -50.85534093 21.09665584 -45.9012146 18.18598938 C-44.1505277 17.15815765 -42.3980591 16.13343225 -40.64501953 15.10961914 C-38.46010606 13.83238905 -36.27850382 12.54946873 -34.10107422 11.25952148 C-22.97067442 4.76902977 -12.91838969 0.08048841 0 0 Z " fill="#A179DC" transform="translate(255.125,-0.25)"/>
<path d="M0 0 C1.42270704 2.14329892 2.65352201 4.2448567 3.875 6.5 C8.97788926 15.46730751 15.33084837 23.16494469 22 31 C22.69480469 31.83789062 23.38960938 32.67578125 24.10546875 33.5390625 C27.43036721 37.48024649 30.99470382 40.91227362 34.93359375 44.23828125 C36.2865522 45.39174866 37.613845 46.5761858 38.91015625 47.79296875 C72.56621561 79.24419956 118.4781746 94.17532429 163.875 94.3125 C164.55897858 94.31626648 165.24295715 94.32003296 165.94766235 94.32391357 C214.30531178 94.45912279 260.00919454 75.1434648 295 42 C295.93328125 41.13117188 296.8665625 40.26234375 297.828125 39.3671875 C309.68933912 28.08738625 319.22197108 14.76373718 328 1 C334.22216754 2.63410461 339.39956729 5.98737486 344.875 9.25 C347.04159347 10.52746789 349.2082622 11.80480816 351.375 13.08203125 C352.4784375 13.73510254 353.581875 14.38817383 354.71875 15.06103516 C359.75932055 18.03962231 364.81675169 20.98906648 369.875 23.9375 C370.8431665 24.50275391 371.81133301 25.06800781 372.80883789 25.65039062 C378.25870706 28.82974175 383.71665588 31.99465144 389.18359375 35.14453125 C389.78081238 35.48866562 390.37803101 35.83279999 390.99334717 36.18736267 C393.89867793 37.86098914 396.80498473 39.53287989 399.71240234 41.20288086 C401.2720874 42.10018921 401.2720874 42.10018921 402.86328125 43.015625 C403.78407471 43.54446289 404.70486816 44.07330078 405.65356445 44.61816406 C407.47062767 45.68824811 409.24541946 46.83027964 411 48 C411.44787963 50.90645294 411.32620169 52.44912959 409.8203125 54.9921875 C402.01547329 63.66023473 392.18331001 69.22778888 382.125 74.9375 C381.00367676 75.57937256 379.88235352 76.22124512 378.72705078 76.88256836 C375.75482918 78.58390203 372.77940894 80.27955335 369.80297852 81.97351074 C365.07878499 84.66313453 360.35886094 87.36025679 355.63812256 90.05593872 C354.4587627 90.72923166 353.27927778 91.40230559 352.09967041 92.07516479 C344.04027118 96.67243945 336.00723777 101.31241286 328 106 C319.40477328 111.0318069 310.7768787 116.00389072 302.125 120.9375 C289.79974804 127.96603507 277.50277933 135.04240434 265.21777344 142.14111328 C258.73244661 145.88764427 252.24413842 149.62901086 245.75610352 153.37084961 C240.30047467 156.51761725 234.84619091 159.66667268 229.39453125 162.8203125 C222.93484118 166.55585844 216.47010355 170.28251952 210 174 C208.93426758 174.61246582 207.86853516 175.22493164 206.77050781 175.85595703 C203.66253831 177.63851079 200.5507594 179.41420445 197.4375 181.1875 C196.51622314 181.71617676 195.59494629 182.24485352 194.64575195 182.78955078 C180.26658413 190.94830094 167.1271232 195.42856555 150.375 192.125 C135.55146678 187.93405343 121.95614204 178.30517858 108.84765625 170.4765625 C102.72285771 166.82302847 96.55452657 163.24751041 90.375 159.6875 C89.29420166 159.06472168 88.21340332 158.44194336 87.09985352 157.80029297 C78.44438817 152.81956392 69.77112257 147.8702138 61.09637451 142.92318726 C52.05600663 137.76621317 43.05510072 132.54476951 34.07324219 127.28662109 C25.86084825 122.48588404 17.60738625 117.75859742 9.34375 113.046875 C-0.18540194 107.61358661 -9.69368336 102.14510795 -19.19067383 96.65576172 C-26.69670751 92.32046381 -34.21939906 88.01527712 -41.74942017 83.72186279 C-45.80075261 81.41057597 -49.84871525 79.09339946 -53.89648438 76.77587891 C-55.85251199 75.65661011 -57.80942207 74.53888076 -59.76757812 73.42333984 C-62.12021321 72.08124782 -64.46724575 70.72993576 -66.8125 69.375 C-67.77941772 68.82718872 -67.77941772 68.82718872 -68.76586914 68.26831055 C-74.80956629 64.74965853 -80.26498243 60.47762548 -84.4375 54.8125 C-84.93121094 54.15894531 -85.42492187 53.50539063 -85.93359375 52.83203125 C-87 51 -87 51 -87 48 C-86.36835937 47.64921387 -85.73671875 47.29842773 -85.0859375 46.93701172 C-71.35544662 39.30264116 -57.71066149 31.54494862 -44.15625 23.6015625 C-37.47403022 19.68626706 -30.77045907 15.80844541 -24.0625 11.9375 C-22.9907251 11.31818604 -21.9189502 10.69887207 -20.81469727 10.06079102 C-18.80546861 8.90189521 -16.7945709 7.74588661 -14.78173828 6.59326172 C-12.96884882 5.55491552 -11.15971496 4.50997592 -9.35498047 3.45751953 C-8.15639404 2.76891846 -8.15639404 2.76891846 -6.93359375 2.06640625 C-6.24193115 1.66494385 -5.55026855 1.26348145 -4.83764648 0.84985352 C-3 0 -3 0 0 0 Z " fill="#290168" transform="translate(93,382)"/>
<path d="M0 0 C1.10472656 0.37253906 2.20945312 0.74507812 3.34765625 1.12890625 C21.86937745 8.13250834 39.42710925 22.60003445 49 40 C49 40.66 49 41.32 49 42 C48.2879541 42.40613525 47.5759082 42.81227051 46.84228516 43.23071289 C30.60954545 52.49191534 14.39940195 61.7907986 -1.78222656 71.14111328 C-8.27125096 74.88978034 -14.7633695 78.63308667 -21.25488281 82.37744141 C-26.64748314 85.48818339 -32.03937822 88.60013327 -37.4296875 91.71484375 C-49.22885559 98.53072903 -61.04424122 105.31671955 -72.88256836 112.06427002 C-82.41612741 117.49970337 -91.90733414 123.00385736 -101.36376953 128.57250977 C-105.84603481 131.20347295 -110.30714294 133.76343769 -115 136 C-127.1818167 111.06615389 -131.13171261 85.41107195 -122.25244141 58.75585938 C-113.51173599 34.13808377 -96.20812465 15.56524359 -73.17578125 3.5234375 C-50.18630188 -7.417541 -23.95901804 -8.30461413 0 0 Z " fill="#A179DB" transform="translate(289,198)"/>
<path d="M0 0 C2.83473241 0.96108439 5.23324383 2.32744642 7.82666016 3.82470703 C8.94322998 4.46609619 10.0597998 5.10748535 11.21020508 5.76831055 C12.42358453 6.47186393 13.63687985 7.17556244 14.85009766 7.87939453 C16.11068719 8.60628168 17.37151433 9.33275689 18.63256836 10.05883789 C21.22983216 11.5552346 23.8254599 13.05441512 26.41992188 14.55566406 C29.93430884 16.58823986 33.45571406 18.60837745 36.97900391 20.62548828 C51.84389034 29.14705307 66.56582077 37.88467642 81.22509766 46.75439453 C78.42458589 59.37416949 63.5727299 72.2177238 53.02197266 79.10595703 C41.2009604 86.07308995 29.58633321 90.60660092 16.22509766 93.75439453 C15.43103516 93.95677734 14.63697266 94.15916016 13.81884766 94.36767578 C-9.74688503 97.88124135 -35.18975296 91.91846581 -54.42724609 77.80908203 C-56.91962423 75.83766714 -59.34936781 73.80709215 -61.77490234 71.75439453 C-62.66242188 71.08537109 -62.66242188 71.08537109 -63.56787109 70.40283203 C-67.87991075 67.06381795 -71.19708295 62.99078196 -74.58740234 58.75439453 C-75.30851196 57.86373291 -75.30851196 57.86373291 -76.04418945 56.95507812 C-78.84418362 53.36524005 -80.59488381 50.22891567 -81.77490234 45.75439453 C-68.02983047 37.69509642 -54.24368977 29.71342005 -40.40136719 21.82250977 C-30.83825331 16.36984546 -21.29976359 10.87535233 -11.77148438 5.36206055 C-10.23790283 4.47538696 -10.23790283 4.47538696 -8.67333984 3.57080078 C-7.77276855 3.04945557 -6.87219727 2.52811035 -5.94433594 1.9909668 C-1.97253152 -0.27295278 -1.97253152 -0.27295278 0 0 Z " fill="#280068" transform="translate(256.77490234375,287.24560546875)"/>
<path d="M0 0 C4.62 0 9.24 0 14 0 C14 8.91 14 17.82 14 27 C22.58 27 31.16 27 40 27 C40 18.42 40 9.84 40 1 C44.62 1 49.24 1 54 1 C54 9.91 54 18.82 54 28 C62.91 28 71.82 28 81 28 C81 32.29 81 36.58 81 41 C72.09 41 63.18 41 54 41 C54 49.91 54 58.82 54 68 C62.91 68 71.82 68 81 68 C81 72.29 81 76.58 81 81 C72.09 81 63.18 81 54 81 C54 89.91 54 98.82 54 108 C49.71 108 45.42 108 41 108 C41 99.09 41 90.18 41 81 C32.09 81 23.18 81 14 81 C14 90.24 14 99.48 14 109 C9.38 109 4.76 109 0 109 C0 100.09 0 91.18 0 82 C-8.91 82 -17.82 82 -27 82 C-27 77.38 -27 72.76 -27 68 C-18.09 68 -9.18 68 0 68 C0 59.09 0 50.18 0 41 C-8.91 41 -17.82 41 -27 41 C-27 36.38 -27 31.76 -27 27 C-18.09 27 -9.18 27 0 27 C0 18.09 0 9.18 0 0 Z " fill="#F9F8FC" transform="translate(390,232)"/>
<path d="M0 0 C8.91 0 17.82 0 27 0 C27 8.91 27 17.82 27 27 C18.09 27 9.18 27 0 27 C0 18.09 0 9.18 0 0 Z " fill="#3B0392" transform="translate(404,273)"/>
</svg>
