<?xml version="1.0" encoding="UTF-8"?>
<svg version="1.1" xmlns="http://www.w3.org/2000/svg" width="512" height="512">
<path d="M0 0 C1.01790619 0.00215515 2.03581238 0.0043103 3.08456421 0.00653076 C17.69363523 0.05620146 32.02575853 0.30709809 46.375 3.3125 C47.34985352 3.51117676 48.32470703 3.70985352 49.32910156 3.91455078 C97.7109774 14.03517194 141.69928269 35.9516877 177.375 70.3125 C178.3640332 71.26068604 178.3640332 71.26068604 179.37304688 72.22802734 C188.86130305 81.37247479 197.6012044 90.66984009 205.375 101.3125 C206.23306152 102.46355017 207.09113451 103.61459177 207.94921875 104.765625 C213.98736829 112.95680614 219.34595521 121.47054105 224.375 130.3125 C224.73948242 130.94430176 225.10396484 131.57610352 225.47949219 132.22705078 C247.08534998 169.97532572 256.85198095 212.74189997 256.6875 255.9375 C256.68534485 256.95540619 256.6831897 257.97331238 256.68096924 259.02206421 C256.63129854 273.63113523 256.38040191 287.96325853 253.375 302.3125 C253.07698486 303.77478027 253.07698486 303.77478027 252.77294922 305.26660156 C242.65232806 353.6484774 220.7358123 397.63678269 186.375 433.3125 C185.74287598 433.97185547 185.11075195 434.63121094 184.45947266 435.31054688 C175.31502521 444.79880305 166.01765991 453.5387044 155.375 461.3125 C154.22394983 462.17056152 153.07290823 463.02863451 151.921875 463.88671875 C143.73224019 469.92427396 135.22961724 475.30707302 126.375 480.3125 C125.66778809 480.7146875 124.96057617 481.116875 124.23193359 481.53125 C101.09654164 494.5566741 75.92537591 503.30551461 49.9375 508.625 C49.21860596 508.77235596 48.49971191 508.91971191 47.7590332 509.0715332 C33.08339502 511.86090125 18.55831162 512.66142619 3.64770508 512.62817383 C0.70811513 512.6250221 -2.2304558 512.64854926 -5.16992188 512.67382812 C-18.54306192 512.71848737 -31.43916711 511.51301542 -44.625 509.3125 C-46.33055054 509.03031616 -46.33055054 509.03031616 -48.07055664 508.74243164 C-91.33802759 500.97044532 -132.38793216 480.98345309 -165.625 452.3125 C-166.37007813 451.67828125 -167.11515625 451.0440625 -167.8828125 450.390625 C-181.38779833 438.57948485 -194.05918743 425.82889772 -204.625 411.3125 C-205.48149066 410.16255169 -206.33826433 409.01281411 -207.1953125 407.86328125 C-213.23534209 399.67315742 -218.61867614 391.16870382 -223.625 382.3125 C-224.0271875 381.60528809 -224.429375 380.89807617 -224.84375 380.16943359 C-237.8691741 357.03404164 -246.61801461 331.86287591 -251.9375 305.875 C-252.08485596 305.15610596 -252.23221191 304.43721191 -252.3840332 303.6965332 C-255.35789088 288.05024391 -255.99800362 272.57681954 -255.9375 256.6875 C-255.93534485 255.66959381 -255.9331897 254.65168762 -255.93096924 253.60293579 C-255.88129854 238.99386477 -255.63040191 224.66174147 -252.625 210.3125 C-252.42632324 209.33764648 -252.22764648 208.36279297 -252.02294922 207.35839844 C-241.90232806 158.9765226 -219.9858123 114.98821731 -185.625 79.3125 C-184.99287598 78.65314453 -184.36075195 77.99378906 -183.70947266 77.31445312 C-174.56502521 67.82619695 -165.26765991 59.0862956 -154.625 51.3125 C-153.47394983 50.45443848 -152.32290823 49.59636549 -151.171875 48.73828125 C-142.98224019 42.70072604 -134.47961724 37.31792698 -125.625 32.3125 C-124.91778809 31.9103125 -124.21057617 31.508125 -123.48193359 31.09375 C-100.34654164 18.0683259 -75.17537591 9.31948539 -49.1875 4 C-48.46860596 3.85264404 -47.74971191 3.70528809 -47.0090332 3.5534668 C-31.36274391 0.57960912 -15.88931954 -0.06050362 0 0 Z " fill="#51C8C5" transform="translate(255.625,-0.3125)"/>
<path d="M0 0 C0.98560437 3.14201771 1.13215453 4.65334616 -0.05712891 7.77294922 C-0.60804199 8.77342285 -1.15895508 9.77389648 -1.7265625 10.8046875 C-2.33983398 11.93382568 -2.95310547 13.06296387 -3.58496094 14.22631836 C-4.2646334 15.44273592 -4.94465491 16.65895851 -5.625 17.875 C-6.3165609 19.13552914 -7.00697818 20.39668632 -7.69628906 21.65844727 C-12.49385539 30.41040805 -17.41673131 39.09354931 -22.36157227 47.76293945 C-26.37345285 54.81750727 -30.17630432 61.96384611 -33.91381836 69.16674805 C-37.14953426 75.39683062 -40.45192427 81.58636341 -43.8125 87.75 C-44.29686523 88.64138672 -44.78123047 89.53277344 -45.28027344 90.45117188 C-48.09060189 95.59643164 -50.96812041 100.69608292 -53.90625 105.76953125 C-54.5561792 106.90100586 -55.2061084 108.03248047 -55.87573242 109.19824219 C-57.14479473 111.40266405 -58.42581234 113.60025619 -59.7199707 115.79003906 C-60.57981567 117.28809082 -60.57981567 117.28809082 -61.45703125 118.81640625 C-61.97241455 119.69756104 -62.48779785 120.57871582 -63.01879883 121.48657227 C-64.18904173 124.48424598 -63.73473883 125.93327877 -63 129 C-62.40401064 129.00331015 -61.80802128 129.00662029 -61.19397163 129.01003075 C-46.70591793 129.09117879 -32.21796422 129.1832441 -17.73005867 129.28752708 C-10.72387001 129.33769266 -3.71769329 129.384135 3.28857422 129.421875 C10.0448441 129.45827874 16.80096996 129.50497499 23.55713272 129.55806351 C26.14000329 129.57665457 28.72290141 129.59174492 31.30581284 129.60334396 C34.91218068 129.62012592 38.51825154 129.64914127 42.12451172 129.68115234 C43.74075439 129.68439262 43.74075439 129.68439262 45.38964844 129.68769836 C46.36843964 129.69886185 47.34723083 129.71002533 48.35568237 129.7215271 C49.63605283 129.72982324 49.63605283 129.72982324 50.94228935 129.73828697 C53 130 53 130 55 132 C54.85272037 135.39663649 54.53271174 137.3711042 52.3125 139.9921875 C51.549375 140.61351562 50.78625 141.23484375 50 141.875 C48.64455078 143.02548828 48.64455078 143.02548828 47.26171875 144.19921875 C46.74786621 144.63411621 46.23401367 145.06901367 45.70458984 145.51708984 C42.31124683 148.46913302 39.07538097 151.5929831 35.8125 154.6875 C34.33499568 156.08241294 32.85712896 157.47694212 31.37890625 158.87109375 C30.64687988 159.56187012 29.91485352 160.25264648 29.16064453 160.96435547 C21.35899464 168.31465567 13.51140956 175.61577927 5.625 182.875 C-0.1426773 188.18512372 -5.85309214 193.55479425 -11.55761719 198.93261719 C-18.0702753 205.07128686 -24.6099686 211.18050237 -31.15722656 217.28222656 C-34.27293906 220.18659237 -37.38634111 223.09343299 -40.5 226 C-41.74998918 227.16667826 -42.99998917 228.33334493 -44.25 229.5 C-44.86875 230.0775 -45.4875 230.655 -46.125 231.25 C-53 237.66666667 -59.875 244.08333333 -66.75 250.5 C-67.6783667 251.3664917 -67.6783667 251.3664917 -68.62548828 252.25048828 C-69.87381737 253.41557375 -71.12218967 254.58061291 -72.37060547 255.74560547 C-75.52152888 258.68608369 -78.67166566 261.62739654 -81.8203125 264.5703125 C-87.67717704 270.04307116 -93.54084206 275.50761523 -99.4375 280.9375 C-104.27358343 285.39170886 -109.08072603 289.87582921 -113.875 294.375 C-114.54257324 295.00132324 -115.21014648 295.62764648 -115.89794922 296.27294922 C-118.61917341 298.82643121 -121.34014348 301.38018218 -124.06005859 303.93505859 C-126.05951629 305.81232456 -128.06082636 307.68759735 -130.0625 309.5625 C-130.65724121 310.12179199 -131.25198242 310.68108398 -131.86474609 311.25732422 C-133.00105156 312.3206295 -134.14250339 313.3784674 -135.28955078 314.43017578 C-136.48774243 315.52985781 -137.67260536 316.64415787 -138.84716797 317.76904297 C-139.45318848 318.32865723 -140.05920898 318.88827148 -140.68359375 319.46484375 C-141.2242749 319.97523193 -141.76495605 320.48562012 -142.32202148 321.01147461 C-144 322 -144 322 -146.14477539 321.72094727 C-148 321 -148 321 -149 320 C-149.38559036 316.04425233 -148.79752152 314.1137442 -146.39453125 310.98828125 C-145.82984131 310.2398999 -145.26515137 309.49151855 -144.68334961 308.72045898 C-143.75727905 307.52851929 -143.75727905 307.52851929 -142.8125 306.3125 C-141.51732999 304.60224307 -140.22307992 302.89128914 -138.9296875 301.1796875 C-137.9411377 299.8817627 -137.9411377 299.8817627 -136.93261719 298.55761719 C-134.03911075 294.72836335 -131.23573907 290.83662919 -128.4375 286.9375 C-127.36343106 285.44650665 -126.28921212 283.95562135 -125.21484375 282.46484375 C-124.68487793 281.72862793 -124.15491211 280.99241211 -123.60888672 280.23388672 C-120.36853805 275.73476831 -117.11972298 271.24175881 -113.87255859 266.74755859 C-111.17401978 263.012055 -108.47742047 259.2751852 -105.78515625 255.53515625 C-100.17096822 247.74084153 -94.52114617 239.975464 -88.8125 232.25 C-84.01045231 225.75080101 -79.26721286 219.21544142 -74.5859375 212.62890625 C-71.43297188 208.19544027 -68.2476799 203.78535093 -65.0625 199.375 C-64.50618896 198.60406006 -63.94987793 197.83312012 -63.37670898 197.03881836 C-62.85149658 196.31186768 -62.32628418 195.58491699 -61.78515625 194.8359375 C-61.31988525 194.19188965 -60.85461426 193.5478418 -60.37524414 192.88427734 C-59 191 -59 191 -57.26342773 189.07275391 C-55.7050281 187.02050263 -55.7050281 187.02050263 -56.42103577 184.37045288 C-56.61209396 183.58820343 -56.80315216 182.80595398 -57 182 C-57.93898494 181.99641747 -57.93898494 181.99641747 -58.89693928 181.99276257 C-74.11975798 181.93365916 -89.34239876 181.85813928 -104.56503773 181.76428509 C-111.92656334 181.71929512 -119.28804023 181.67988796 -126.6496582 181.65356445 C-133.06510203 181.63061015 -139.48039207 181.5972412 -145.89571398 181.55129844 C-149.2934684 181.52733122 -152.69107018 181.50862553 -156.08890724 181.50238609 C-159.87957237 181.49280936 -163.66967667 181.4648265 -167.46020508 181.43237305 C-168.59020935 181.43380814 -169.72021362 181.43524323 -170.88446045 181.4367218 C-171.91511124 181.42418365 -172.94576202 181.41164551 -174.00764465 181.39872742 C-175.35300151 181.39181397 -175.35300151 181.39181397 -176.7255373 181.38476086 C-179 181 -179 181 -180.87452221 179.72507954 C-182 178 -182 178 -181.86248875 176.01045704 C-180.90865434 173.78707372 -179.90995894 172.53764082 -178.20018005 170.83268738 C-177.30673134 169.93088493 -177.30673134 169.93088493 -176.39523315 169.01086426 C-175.73814362 168.3629895 -175.08105408 167.71511475 -174.40405273 167.04760742 C-173.36972359 166.01021172 -173.36972359 166.01021172 -172.3144989 164.95185852 C-170.02805597 162.66240268 -167.73103214 160.38388649 -165.43359375 158.10546875 C-163.8393474 156.51428103 -162.24569203 154.92250099 -160.65260315 153.33015442 C-157.30703727 149.98919587 -153.95661719 146.65321165 -150.60229492 143.32104492 C-146.31743143 139.06434932 -142.04118331 134.79913341 -137.76814175 130.53057384 C-133.68060412 126.44821504 -129.58839823 122.37054801 -125.49609375 118.29296875 C-124.72167875 117.52043447 -123.94726376 116.7479002 -123.14938164 115.9519558 C-120.93605601 113.74556565 -118.71939951 111.54257801 -116.50170898 109.34057617 C-115.85878906 108.69877411 -115.21586914 108.05697205 -114.5534668 107.39572144 C-111.49493997 104.36557524 -108.39285162 101.44217641 -105.1269989 98.63592529 C-100.33346938 94.48788284 -95.91248544 89.99889849 -91.46630859 85.48461914 C-90.05711159 84.06085354 -88.64790972 82.63709273 -87.23852372 81.21351421 C-85.73947003 79.69861476 -84.24161394 78.18253884 -82.74393845 76.66627693 C-79.61299577 73.49767196 -76.47532947 70.33578266 -73.33609009 67.17539978 C-72.80441518 66.64008749 -72.27274028 66.10477519 -71.72495401 65.55324131 C-70.63882604 64.4597096 -69.5526824 63.36619346 -68.46652341 62.27269256 C-61.16908718 54.92539864 -53.87617092 47.57376069 -46.6015625 40.20385742 C-41.67798566 35.21588563 -36.74387958 30.23860161 -31.79729903 25.27343839 C-29.18457645 22.65004153 -26.57760017 20.02145067 -23.98347092 17.37965584 C-21.09670111 14.44002053 -18.18706218 11.52410374 -15.27490234 8.60961914 C-14.4207222 7.7322963 -13.56654205 6.85497345 -12.68647766 5.95106506 C-11.89044632 5.16183655 -11.09441498 4.37260803 -10.27426147 3.5594635 C-9.58962011 2.86799256 -8.90497875 2.17652163 -8.19959068 1.46409702 C-5.34383504 -0.43675815 -3.35970804 -0.27349471 0 0 Z " fill="#FDFEFE" transform="translate(319,93)"/>
</svg>
