<?xml version="1.0" encoding="UTF-8"?>
<svg version="1.1" xmlns="http://www.w3.org/2000/svg" width="680" height="680">
<path d="M0 0 C1.08582367 0.00021149 2.17164734 0.00042297 3.29037476 0.00064087 C19.93898502 0.03300997 35.93517759 0.78715416 52.25 4.375 C53.55662598 4.64787842 53.55662598 4.64787842 54.88964844 4.92626953 C88.03371333 11.96922597 121.4698047 25.31881591 148.25 46.375 C149.38301898 47.24491841 150.51720917 48.11331274 151.65234375 48.98046875 C153.90771029 50.70541566 156.15801636 52.43649757 158.40234375 54.17578125 C159.34207031 54.90152344 160.28179687 55.62726563 161.25 56.375 C161.99378906 56.96667969 162.73757813 57.55835938 163.50390625 58.16796875 C165.1704166 59.56454523 165.1704166 59.56454523 167.25 59.375 C168.48209178 57.58497987 169.63751674 55.7417092 170.75 53.875 C171.86248326 52.0082908 173.01790822 50.16502013 174.25 48.375 C174.91 48.375 175.57 48.375 176.25 48.375 C176.52972656 47.78074219 176.80945313 47.18648437 177.09765625 46.57421875 C186.15728853 29.28414087 210.72215147 16.93787376 228.50244141 11.28491211 C257.40434637 2.55621388 288.2074385 5.11487698 315.0625 19.125 C322.380656 23.1099996 328.83276826 28.08056789 335.25 33.375 C336.09280518 34.03943115 336.09280518 34.03943115 336.95263672 34.71728516 C338.42205985 35.89170558 339.84071675 37.12905121 341.25 38.375 C341.25 39.035 341.25 39.695 341.25 40.375 C341.91 40.375 342.57 40.375 343.25 40.375 C383.30716537 81.87185207 392.74381159 157.04628532 392.5625 211.9375 C392.55976578 213.65703888 392.55976578 213.65703888 392.55697632 215.41131592 C392.51190721 232.24954576 392.08791427 248.74066932 389.25 265.375 C389.07839355 266.43074219 388.90678711 267.48648437 388.72998047 268.57421875 C380.17159128 320.27637327 360.0779925 369.94229047 327.65234375 411.3046875 C326.12676201 413.25445538 324.61694408 415.21674286 323.12890625 417.1953125 C322.50886719 418.01773437 321.88882813 418.84015625 321.25 419.6875 C320.445625 420.76451172 320.445625 420.76451172 319.625 421.86328125 C319.17125 422.36214844 318.7175 422.86101562 318.25 423.375 C317.59 423.375 316.93 423.375 316.25 423.375 C315.98832031 423.96539062 315.72664062 424.55578125 315.45703125 425.1640625 C314.1860512 427.49213599 312.85869648 428.93529999 310.9375 430.75 C308.71690339 432.89749055 306.76963516 434.96621826 304.8125 437.375 C302.23977984 440.38696506 299.54789663 442.84036503 296.5390625 445.3984375 C293.96543949 447.62071266 291.48885235 449.9332873 289 452.25 C283.36179737 457.37213764 277.45787289 461.96892843 271.25 466.375 C270.22108643 467.10807373 270.22108643 467.10807373 269.17138672 467.85595703 C245.46543949 484.65133356 219.89208713 499.12893808 192.25 508.375 C191.54311035 508.61911621 190.8362207 508.86323242 190.10791016 509.11474609 C180.84000575 512.30216329 171.50459277 514.93148787 161.9375 517.0625 C160.67957642 517.34782593 160.67957642 517.34782593 159.39624023 517.63891602 C140.82797289 521.5879637 122.44795821 522.92308312 103.5 522.8125 C102.40603912 522.80979095 101.31207825 522.80708191 100.18496704 522.80429077 C83.85541995 522.74303988 68.22977133 521.97836886 52.25 518.375 C50.46244144 518.00812968 48.67468118 517.6422407 46.88671875 517.27734375 C9.09488685 509.21643383 -26.99492153 492.45651604 -56.41796875 467.25 C-58.75571635 465.37040394 -61.14505354 463.855609 -63.75 462.375 C-64.02070313 462.94347656 -64.29140625 463.51195312 -64.5703125 464.09765625 C-67.54980586 469.84945966 -71.4115057 475.57166702 -75.75 480.375 C-76.41 480.375 -77.07 480.375 -77.75 480.375 C-78.11738281 481.23738281 -78.11738281 481.23738281 -78.4921875 482.1171875 C-86.12300221 495.81473688 -108.8550287 506.85031318 -123.32226562 511.13720703 C-154.70350425 519.58300814 -185.99658637 517.99736512 -214.68359375 501.8515625 C-220.80262949 498.2378104 -226.28089711 493.89872939 -231.75 489.375 C-232.6265625 488.69050781 -233.503125 488.00601562 -234.40625 487.30078125 C-237.98841895 484.35743243 -240.81585505 480.9513574 -243.75 477.375 C-244.45382813 476.52035156 -245.15765625 475.66570312 -245.8828125 474.78515625 C-271.86889418 441.78192708 -281.3492973 394.97774971 -286.75 354.375 C-286.9257959 353.26108887 -287.1015918 352.14717773 -287.28271484 350.99951172 C-288.10631812 344.30395938 -287.95715961 337.52938236 -287.98828125 330.79296875 C-287.99439454 329.66300696 -287.99439454 329.66300696 -288.00063133 328.51021767 C-288.02143561 324.50445466 -288.03574836 320.49872509 -288.04516602 316.49291992 C-288.05392848 313.23979393 -288.07457493 309.98710877 -288.10668945 306.73413086 C-288.75694262 239.36863244 -269.3285753 172.83172042 -229.10449219 118.22607422 C-227.81080078 116.45809147 -226.54524312 114.67367045 -225.2890625 112.87890625 C-224.57492188 111.86699219 -223.86078125 110.85507813 -223.125 109.8125 C-222.51398438 108.94496094 -221.90296875 108.07742187 -221.2734375 107.18359375 C-220.77070313 106.58675781 -220.26796875 105.98992187 -219.75 105.375 C-219.09 105.375 -218.43 105.375 -217.75 105.375 C-217.51410156 104.82199219 -217.27820313 104.26898438 -217.03515625 103.69921875 C-208.64697151 88.52909742 -190.34546967 73.68816149 -176.75 63.375 C-175.54021473 62.43639103 -174.33059072 61.49757419 -173.12109375 60.55859375 C-134.55238748 30.87893738 -89.45986323 9.83843062 -41.10205078 2.72314453 C-39.31592185 2.4587663 -37.53357828 2.16866221 -35.75341797 1.86669922 C-23.85363012 0.01701696 -12.01920492 -0.02154368 0 0 Z " fill="#0B6C3E" transform="translate(287.75,78.625)"/>
<path d="M0 0 C0.56187012 0.4429541 1.12374023 0.8859082 1.70263672 1.34228516 C3.17205985 2.51670558 4.59071675 3.75405121 6 5 C6 5.66 6 6.32 6 7 C6.66 7 7.32 7 8 7 C48.05716537 48.49685207 57.49381159 123.67128532 57.3125 178.5625 C57.30976578 180.28203888 57.30976578 180.28203888 57.30697632 182.03631592 C57.26190721 198.87454576 56.83791427 215.36566932 54 232 C53.82839355 233.05574219 53.65678711 234.11148437 53.47998047 235.19921875 C44.92159128 286.90137327 24.8279925 336.56729047 -7.59765625 377.9296875 C-9.12323799 379.87945538 -10.63305592 381.84174286 -12.12109375 383.8203125 C-13.05115234 385.05394531 -13.05115234 385.05394531 -14 386.3125 C-14.804375 387.38951172 -14.804375 387.38951172 -15.625 388.48828125 C-16.07875 388.98714844 -16.5325 389.48601562 -17 390 C-17.66 390 -18.32 390 -19 390 C-19.26167969 390.59039062 -19.52335937 391.18078125 -19.79296875 391.7890625 C-21.0639488 394.11713599 -22.39130352 395.56029999 -24.3125 397.375 C-26.53309661 399.52249055 -28.48036484 401.59121826 -30.4375 404 C-33.01022016 407.01196506 -35.70210337 409.46536503 -38.7109375 412.0234375 C-41.28456051 414.24571266 -43.76114765 416.5582873 -46.25 418.875 C-51.88820263 423.99713764 -57.79212711 428.59392843 -64 433 C-64.68594238 433.48871582 -65.37188477 433.97743164 -66.07861328 434.48095703 C-89.78456051 451.27633356 -115.35791287 465.75393808 -143 475 C-143.70688965 475.24411621 -144.4137793 475.48823242 -145.14208984 475.73974609 C-154.40999425 478.92716329 -163.74540723 481.55648787 -173.3125 483.6875 C-174.15111572 483.87771729 -174.98973145 484.06793457 -175.85375977 484.26391602 C-194.42202711 488.2129637 -212.80204179 489.54808312 -231.75 489.4375 C-232.84396088 489.43479095 -233.93792175 489.43208191 -235.06503296 489.42929077 C-251.39458005 489.36803988 -267.02022867 488.60336886 -283 485 C-284.78755856 484.63312968 -286.57531882 484.2672407 -288.36328125 483.90234375 C-326.30038122 475.81044849 -362.09112755 458.94165623 -391.765625 433.875 C-393.79501957 432.17201155 -395.86479452 430.56712329 -398 429 C-397.31142951 425.35809496 -395.77267882 422.52423419 -393.97265625 419.30078125 C-393.35068359 418.1830835 -392.72871094 417.06538574 -392.08789062 415.91381836 C-391.41302431 414.71323053 -390.73788811 413.51279437 -390.0625 412.3125 C-389.37027728 411.0750437 -388.67822106 409.83749424 -387.98632812 408.59985352 C-384.02001072 401.51973777 -379.9977332 394.47521605 -375.84765625 387.50097656 C-372.68618806 382.18795364 -369.5978556 376.83517089 -366.52026367 371.47314453 C-345.24908715 334.41636238 -345.24908715 334.41636238 -341 333 C-342.32451172 332.18208984 -342.32451172 332.18208984 -343.67578125 331.34765625 C-351.58512798 326.40293024 -358.99162238 321.19110674 -366 315 C-366.68320312 314.40058594 -367.36640625 313.80117188 -368.0703125 313.18359375 C-384.44282241 297.83850856 -394.26721633 277.35461917 -400 256 C-400.51046875 254.22496094 -400.51046875 254.22496094 -401.03125 252.4140625 C-407.37110571 226.76112784 -403.05602325 198.27482267 -391 175 C-390.66484375 174.33419922 -390.3296875 173.66839844 -389.984375 172.98242188 C-384.83470547 162.84641188 -378.71968548 154.32647299 -371 146 C-370.24847656 145.17886719 -369.49695313 144.35773438 -368.72265625 143.51171875 C-348.16842268 121.99110168 -318.73474312 109.36412502 -289.16796875 107.796875 C-265.8436444 107.5222019 -244.40394056 112.75063515 -224 124 C-223.06414062 124.5053125 -222.12828125 125.010625 -221.1640625 125.53125 C-195.35448677 140.1865296 -176.71610129 165.97171814 -168.03125 194.05078125 C-159.33058372 225.99350515 -163.80145672 258.90822791 -179.625 287.875 C-192.7170444 310.63022003 -212.133034 327.41606272 -236 338 C-237.61648438 338.72316406 -237.61648438 338.72316406 -239.265625 339.4609375 C-242.47719017 340.79236527 -245.69175883 341.93147613 -249 343 C-250.20398438 343.39316406 -251.40796875 343.78632813 -252.6484375 344.19140625 C-276.9439447 351.2044196 -305.88536969 348.57169713 -329 339 C-329 339.99 -329 340.98 -329 342 C-328.01 341.67 -327.02 341.34 -326 341 C-323.91503906 341.85546875 -323.91503906 341.85546875 -321.515625 343.1875 C-316.07832674 346.03804594 -310.57550855 348.08850501 -304.75 350 C-303.71875 350.3410376 -302.6875 350.6820752 -301.625 351.03344727 C-272.26326498 360.50215922 -238.08750711 365.17613334 -208 356 C-207.2064209 355.75862305 -206.4128418 355.51724609 -205.59521484 355.26855469 C-165.29238461 342.54134514 -135.91685038 311.34408543 -116.7578125 274.609375 C-93.94872618 229.24202394 -90.3278051 175.24700094 -105.56811523 126.91625977 C-112.49911907 106.23124147 -122.07507577 85.63400515 -135 68 C-135.76828125 66.948125 -136.5365625 65.89625 -137.328125 64.8125 C-142.0622915 58.45363442 -147.10166821 52.49799294 -152.59692383 46.78125 C-156 43.20256696 -156 43.20256696 -156 41 C-156.66 41 -157.32 41 -158 41 C-159.625 39.625 -159.625 39.625 -161 38 C-161 37.34 -161 36.68 -161 36 C-161.5775 35.7525 -162.155 35.505 -162.75 35.25 C-165.38288682 33.7872851 -167.12450669 32.36173231 -169 30 C-168.61880624 26.23778329 -166.55603986 23.38329757 -164.5625 20.25 C-163.94503906 19.26515625 -163.32757813 18.2803125 -162.69140625 17.265625 C-162.13324219 16.51796875 -161.57507813 15.7703125 -161 15 C-160.34 15 -159.68 15 -159 15 C-158.72027344 14.40574219 -158.44054687 13.81148437 -158.15234375 13.19921875 C-149.09271147 -4.09085913 -124.52784853 -16.43712624 -106.74755859 -22.09008789 C-68.85121006 -33.53520857 -30.2939631 -24.99353887 0 0 Z " fill="#26A949" transform="translate(623,112)"/>
<path d="M0 0 C0.93585938 0.5053125 1.87171875 1.010625 2.8359375 1.53125 C28.64551323 16.1865296 47.28389871 41.97171814 55.96875 70.05078125 C64.66941628 101.99350515 60.19854328 134.90822791 44.375 163.875 C31.2829556 186.63022003 11.866966 203.41606272 -12 214 C-13.61648438 214.72316406 -13.61648438 214.72316406 -15.265625 215.4609375 C-18.47719017 216.79236527 -21.69175883 217.93147613 -25 219 C-26.20398438 219.39316406 -27.40796875 219.78632813 -28.6484375 220.19140625 C-48.64237612 225.96275143 -74.27465007 225.42712366 -94 219 C-95.10988281 218.649375 -96.21976562 218.29875 -97.36328125 217.9375 C-127.18958046 207.44913105 -152.80822754 185.78858918 -166.9362793 157.41259766 C-170.82073219 149.21076315 -173.63124882 140.74769803 -176 132 C-176.32097656 130.87980469 -176.64195312 129.75960937 -176.97265625 128.60546875 C-183.30441561 102.83668066 -179.11703072 74.39260097 -167 51 C-166.66484375 50.33419922 -166.3296875 49.66839844 -165.984375 48.98242188 C-160.83470547 38.84641188 -154.71968548 30.32647299 -147 22 C-146.24847656 21.17886719 -145.49695313 20.35773438 -144.72265625 19.51171875 C-106.89500636 -20.09444632 -46.83257471 -25.82034181 0 0 Z " fill="#86E68C" transform="translate(399,236)"/>
<path d="M0 0 C0.73093872 0.00215515 1.46187744 0.0043103 2.21496582 0.00653076 C13.03464775 0.05773173 23.3060287 0.52430197 33.8125 3.3125 C34.60946289 3.51117676 35.40642578 3.70985352 36.22753906 3.91455078 C49.19398429 7.17447628 61.80297997 11.38780345 73.8125 17.3125 C74.1425 17.9725 74.4725 18.6325 74.8125 19.3125 C74.25377197 19.19656494 73.69504395 19.08062988 73.11938477 18.96118164 C70.53877597 18.42822693 67.95691541 17.90158684 65.375 17.375 C64.49650391 17.19259766 63.61800781 17.01019531 62.71289062 16.82226562 C45.3886703 13.30627995 29.05275143 13.52297613 11.8125 17.3125 C10.58015625 17.56773437 9.3478125 17.82296875 8.078125 18.0859375 C-20.41644895 24.75097733 -46.14433672 44.0301972 -61.81958008 68.5859375 C-78.28417868 95.38063451 -85.14199174 127.01119589 -78.0625 158 C-77.1939766 161.46756802 -76.23003768 164.89344714 -75.1875 168.3125 C-74.96288086 169.05032715 -74.73826172 169.7881543 -74.50683594 170.54833984 C-69.29846649 187.00360313 -60.40969323 201.29826965 -49.1875 214.3125 C-48.54425781 215.05886719 -47.90101563 215.80523437 -47.23828125 216.57421875 C-39.09359667 225.28426104 -28.40358422 232.26624608 -18.1875 238.3125 C-18.80625 238.395 -19.425 238.4775 -20.0625 238.5625 C-22.31573832 239.09258373 -22.31573832 239.09258373 -23.13598633 241.03662109 C-23.48298584 241.78766113 -23.82998535 242.53870117 -24.1875 243.3125 C-25.15939177 245.04019179 -26.14382499 246.76085433 -27.13671875 248.4765625 C-27.7296875 249.50265625 -28.32265625 250.52875 -28.93359375 251.5859375 C-29.57425781 252.69195312 -30.21492188 253.79796875 -30.875 254.9375 C-31.54960224 256.1040955 -32.22407925 257.27076343 -32.8984375 258.4375 C-34.29948213 260.86128366 -35.70106514 263.28475478 -37.10302734 265.70800781 C-40.30289861 271.23992584 -43.49471961 276.77648762 -46.6875 282.3125 C-47.92577248 284.45833839 -49.16405378 286.6041717 -50.40234375 288.75 C-52.68013284 292.69792992 -54.95629443 296.64678819 -57.23025513 300.59692383 C-58.24697198 302.36295522 -59.26405658 304.12877431 -60.28125 305.89453125 C-61.55150873 308.09984155 -62.82109018 310.30554216 -64.08984375 312.51171875 C-67.72390788 318.81883895 -71.41848259 325.08505337 -75.1875 331.3125 C-76.8375 330.6525 -78.4875 329.9925 -80.1875 329.3125 C-80.1875 328.6525 -80.1875 327.9925 -80.1875 327.3125 C-80.78570557 327.04187744 -81.38391113 326.77125488 -82.00024414 326.49243164 C-84.16988126 325.32200456 -85.49910445 324.21196248 -87.18359375 322.43359375 C-87.73571533 321.85085693 -88.28783691 321.26812012 -88.85668945 320.66772461 C-89.44023193 320.03487549 -90.02377441 319.40202637 -90.625 318.75 C-91.54381958 317.75722046 -91.54381958 317.75722046 -92.48120117 316.74438477 C-122.77858501 283.47522005 -141.85143574 242.77457028 -148.1875 198.3125 C-148.373125 197.14332031 -148.55875 195.97414063 -148.75 194.76953125 C-154.72740167 145.25026742 -139.81347086 94.25124286 -109.25 55.125 C-81.15804691 21.11004475 -44.90515646 -0.23827434 0 0 Z " fill="#088043" transform="translate(301.1875,206.6875)"/>
<path d="M0 0 C1.33897583 0.95043374 2.67105427 1.91059147 4 2.875 C4.7425 3.40867188 5.485 3.94234375 6.25 4.4921875 C6.8275 4.98976562 7.405 5.48734375 8 6 C8 6.66 8 7.32 8 8 C8.99 8.33 9.98 8.66 11 9 C11 9.66 11 10.32 11 11 C11.66 11 12.32 11 13 11 C14.375 12.328125 14.375 12.328125 16 14.25 C16.93585938 15.35601562 16.93585938 15.35601562 17.890625 16.484375 C18.58671875 17.31453125 19.2828125 18.1446875 20 19 C20.75796875 19.87140625 21.5159375 20.7428125 22.296875 21.640625 C47.86241225 51.43994549 64.3597985 87.40382876 71 126 C71.28037109 127.61950562 71.28037109 127.61950562 71.56640625 129.27172852 C72.99201245 138.24731972 73.40287047 147.11721179 73.375 156.1875 C73.3737915 156.92266846 73.37258301 157.65783691 73.37133789 158.4152832 C73.13852321 211.12793287 52.39246102 258.55658719 15.36328125 295.640625 C1.21812388 309.08803918 -15.58617837 318.98237475 -34 325.3125 C-34.66241699 325.54300049 -35.32483398 325.77350098 -36.00732422 326.01098633 C-49.12110888 330.25294827 -62.18071161 331.52894427 -75.875 331.375 C-76.61801361 331.37034729 -77.36102722 331.36569458 -78.1265564 331.36090088 C-96.2918305 331.22782909 -112.19066021 328.04184072 -129.52709961 322.74731445 C-131.20301895 322.24084895 -132.88380265 321.75025708 -134.56860352 321.27416992 C-139.97116149 319.73124429 -144.91491592 317.82117338 -149.9375 315.3125 C-154.72622058 312.80807743 -154.72622058 312.80807743 -160 312 C-160 311.01 -160 310.02 -160 309 C-159.41476562 309.17015625 -158.82953125 309.3403125 -158.2265625 309.515625 C-156.32816589 310.05150873 -154.42353828 310.56545917 -152.515625 311.06640625 C-150.13909628 311.69750666 -147.77408238 312.37339631 -145.421875 313.08984375 C-123.96146088 319.16516248 -97.98722809 318.24118093 -77 311 C-75.87319824 310.61448975 -75.87319824 310.61448975 -74.72363281 310.22119141 C-58.40955371 304.44639026 -44.74269105 295.60048905 -32 284 C-31.34773437 283.43023437 -30.69546875 282.86046875 -30.0234375 282.2734375 C-10.19783226 263.95119569 2.77531266 234.170961 4.12597656 207.51367188 C5.12950544 172.93638591 -3.88425297 141.82010232 -27.90234375 116.1953125 C-28.59457031 115.47085938 -29.28679687 114.74640625 -30 114 C-30.53753906 113.39929688 -31.07507813 112.79859375 -31.62890625 112.1796875 C-36.38903797 107.04972099 -42.07441349 103.21057647 -47.79296875 99.234375 C-50.23529633 97.53277771 -52.63570059 95.80695835 -55 94 C-54.45214844 93.07445312 -53.90429688 92.14890625 -53.33984375 91.1953125 C-44.0700145 75.50221573 -34.96076094 59.71494896 -25.9375 43.87890625 C-25.60131149 43.28891846 -25.26512299 42.69893066 -24.91874695 42.09106445 C-24.58293106 41.50172119 -24.24711517 40.91237793 -23.90112305 40.30517578 C-18.183207 30.2711088 -12.43257229 20.25860066 -6.5625 10.3125 C-6.01255371 9.37954102 -5.46260742 8.44658203 -4.89599609 7.48535156 C-4.39535645 6.64069336 -3.8947168 5.79603516 -3.37890625 4.92578125 C-2.9413501 4.18755127 -2.50379395 3.44932129 -2.05297852 2.6887207 C-1 1 -1 1 0 0 Z " fill="#077A3C" transform="translate(454,142)"/>
<path d="M0 0 C0.6084375 0.17015625 1.216875 0.3403125 1.84375 0.515625 C3.15859375 0.87914062 3.15859375 0.87914062 4.5 1.25 C5.98306641 1.66185547 5.98306641 1.66185547 7.49609375 2.08203125 C10.06934522 2.75618297 12.62745111 3.37465404 15.22265625 3.94921875 C15.94066406 4.11325195 16.65867187 4.27728516 17.3984375 4.44628906 C18.8264118 4.77041861 20.25747204 5.08127632 21.69140625 5.37792969 C26.6868643 6.53166585 26.6868643 6.53166585 28.33984375 9.00390625 C28.55769531 9.66261719 28.77554687 10.32132812 29 11 C29.66 11.66 30.32 12.32 31 13 C21.80819457 11.28627356 13.35577698 7.93298678 4.8125 4.1875 C2.20173659 2.87034265 2.20173659 2.87034265 0 3 C0 2.01 0 1.02 0 0 Z " fill="#095A29" transform="translate(294,451)"/>
<path d="M0 0 C0.70125 0.19335938 1.4025 0.38671875 2.125 0.5859375 C7.73492134 2.125617 13.35010447 3.61417657 19 5 C18.01 5.495 18.01 5.495 17 6 C17 6.66 17 7.32 17 8 C13.36618307 7.38022871 10.20527485 6.36954869 6.8125 4.9375 C3.50978227 3.45952539 3.50978227 3.45952539 0 3 C0 2.01 0 1.02 0 0 Z " fill="#10602D" transform="translate(294,451)"/>
<path d="M0 0 C4.455 0.99 4.455 0.99 9 2 C4.82091936 4.08954032 4.19589427 4.16552619 0 3 C0 2.01 0 1.02 0 0 Z " fill="#1B6F34" transform="translate(294,451)"/>
</svg>
