<?xml version="1.0" encoding="UTF-8"?>
<svg version="1.1" xmlns="http://www.w3.org/2000/svg" width="1024" height="626">
<path d="M0 0 C1.80268341 0.00697906 1.80268341 0.00697906 3.64178467 0.01409912 C21.14033643 0.09341481 38.34227651 0.40943866 55.625 3.375 C56.74664551 3.55772461 57.86829102 3.74044922 59.02392578 3.92871094 C107.14150501 12.00689309 151.50002488 32.68166187 188.625 64.375 C189.7913601 65.35583342 190.95804659 66.3362788 192.125 67.31640625 C197.87394452 72.1691536 203.48834401 77.0451 208.71516418 82.46652222 C210.47119896 84.22130832 212.27556964 85.82479534 214.1706543 87.42626953 C219.01533885 91.63655509 223.51419567 96.16572719 228.02402687 100.72942734 C229.55805288 102.28115361 231.09585892 103.82904591 232.63468933 105.37600708 C237.00410352 109.76959934 241.36778858 114.16884764 245.72680664 118.57275391 C248.40950642 121.28254923 251.09731544 123.98719402 253.78812218 126.68893814 C254.79973807 127.70667408 255.80946668 128.72629025 256.81708717 129.74798203 C263.40341926 136.42547355 270.25403804 142.56748105 277.625 148.375 C278.23929367 148.86963242 278.85358734 149.36426483 279.48649597 149.87388611 C301.65822275 167.70437859 325.6271992 177.97534559 353.625 182.375 C354.46804688 182.50777344 355.31109375 182.64054688 356.1796875 182.77734375 C395.1322325 187.69695584 433.86894832 174.70637391 464.62890625 151.06640625 C467.34394383 148.88757915 469.99549381 146.65606623 472.625 144.375 C473.43066406 143.68019531 474.23632812 142.98539063 475.06640625 142.26953125 C488.27825763 130.62698485 499.68942827 117.99817467 510.3125 103.95703125 C510.9621875 103.17392578 510.9621875 103.17392578 511.625 102.375 C511.955 102.375 512.285 102.375 512.625 102.375 C508.48849481 148.65913919 480.02208946 198.00388215 449.625 232.375 C449.15384766 232.90931641 448.68269531 233.44363281 448.19726562 233.99414062 C442.68224898 240.21640361 437.04519386 246.07187284 430.625 251.375 C429.75617187 252.13167969 428.88734375 252.88835937 427.9921875 253.66796875 C415.63774349 264.2927906 402.01279171 272.77754414 387.625 280.375 C386.6959082 280.87314209 386.6959082 280.87314209 385.74804688 281.38134766 C364.80810034 292.45133516 340.86315789 299.30220028 317.625 303.375 C316.78308105 303.52517578 315.94116211 303.67535156 315.07373047 303.83007812 C238.32547579 317.1205932 154.35605839 305.36623291 89.81396484 260.10498047 C86.34555302 257.61802317 82.97228028 255.02180309 79.625 252.375 C78.81417969 251.74464844 78.00335937 251.11429688 77.16796875 250.46484375 C60.0985685 237.03544485 44.3509777 222.20958525 29.046875 206.82421875 C28.53545645 206.31020256 28.0240379 205.79618637 27.49712181 205.26659393 C22.70490137 200.4479869 17.91906723 195.62306224 13.13867188 190.79272461 C10.49328198 188.1202541 7.84279115 185.45292604 5.18930817 182.7884922 C4.19722299 181.79030042 3.20702247 180.79023103 2.21895599 179.78806114 C-3.60203021 173.88454813 -9.57256518 168.39205768 -16.05766296 163.22270203 C-17.89924698 161.7543362 -19.68461325 160.26224824 -21.44140625 158.6953125 C-46.29539679 136.83624727 -77.56989747 125.89639606 -110.375 124.375 C-111.20257813 124.33375 -112.03015625 124.2925 -112.8828125 124.25 C-157.4551717 123.15954473 -196.20735148 144.54171477 -227.671875 174.484375 C-234.0879016 180.70995557 -239.83210705 187.36194906 -245.375 194.375 C-247.05487367 196.44384209 -248.74647996 198.50272169 -250.4375 200.5625 C-251.19160156 201.48417969 -251.94570313 202.40585938 -252.72265625 203.35546875 C-253.26792969 204.02191406 -253.81320312 204.68835938 -254.375 205.375 C-255.49524723 202.02817741 -255.24067402 199.97647973 -254.2578125 196.61328125 C-253.84909912 195.20127441 -253.84909912 195.20127441 -253.43212891 193.76074219 C-253.12452637 192.74657227 -252.81692383 191.73240234 -252.5 190.6875 C-252.18337402 189.62821289 -251.86674805 188.56892578 -251.54052734 187.47753906 C-238.3192268 144.02058895 -219.05750333 103.43110856 -187.375 70.375 C-186.54572998 69.49690674 -186.54572998 69.49690674 -185.69970703 68.60107422 C-171.35068536 53.46307552 -155.41958503 41.75744765 -137.375 31.375 C-136.7547998 31.01067871 -136.13459961 30.64635742 -135.49560547 30.27099609 C-95.09050789 6.6616561 -46.05416212 -0.31975935 0 0 Z " fill="#37BDF8" transform="translate(511.375,-0.375)"/>
<path d="M0 0 C1.11737549 -0.00067474 2.23475098 -0.00134949 3.38598633 -0.00204468 C20.44107288 0.01431094 37.13268582 0.4987274 54 3.25 C55.61938477 3.50740967 55.61938477 3.50740967 57.27148438 3.77001953 C87.15004003 8.66090657 115.29077721 17.99226112 142 32.25 C142.96897217 32.75950195 142.96897217 32.75950195 143.95751953 33.27929688 C163.46043379 43.58996875 181.38533284 56.9795318 197.5390625 71.97265625 C199.73959446 74.00902154 201.97728703 75.98261853 204.25 77.9375 C207.39726587 80.66896855 210.32683038 83.55583406 213.24609375 86.52734375 C214.9588984 88.20963073 216.73107445 89.76103759 218.5625 91.3125 C227.1021246 98.6845978 235.12619957 106.86763809 242.43359375 115.45703125 C247.18334956 120.89378416 252.47515555 125.71688929 257.9453125 130.41015625 C260.16525228 132.39797305 262.23351298 134.490524 264.3125 136.625 C269.23176612 141.58616788 274.48830746 145.96312802 280 150.25 C280.82346924 150.89606201 280.82346924 150.89606201 281.66357422 151.55517578 C313.12354805 176.07116212 350.44059186 186.98395913 390.3203125 182.75 C426.37085449 178.19798972 457.10788146 160.18903442 483 135.25 C483.57427734 134.69763672 484.14855469 134.14527344 484.74023438 133.57617188 C494.39626309 124.23331166 503.03198564 114.52788657 510.90625 103.61328125 C511.44765625 102.93845703 511.44765625 102.93845703 512 102.25 C512.33 102.25 512.66 102.25 513 102.25 C509.22315228 144.50986366 484.0677624 192.14659454 457 224.25 C456.50612793 224.84393555 456.01225586 225.43787109 455.50341797 226.04980469 C446.17507536 237.25802592 436.42398413 247.13703705 425 256.25 C423.88431641 257.20132813 423.88431641 257.20132813 422.74609375 258.171875 C409.97911456 268.91834096 395.14775672 277.34835936 380 284.25 C378.92661377 284.7442749 378.92661377 284.7442749 377.83154297 285.24853516 C339.97595234 302.49010344 298.39885922 308.50371174 257.0625 308.4375 C256.35278046 308.43689575 255.64306091 308.4362915 254.91183472 308.43566895 C160.92716633 308.22082589 91.16877348 268.729851 26.60210419 203.89880085 C23.92087631 201.20471834 21.24158458 198.50871363 18.5625 195.8125 C14.80415138 192.03032267 11.04402834 188.24994085 7.27967644 184.47373772 C5.79766462 182.98535279 4.31874522 181.49394511 2.83998108 180.00233459 C-2.273858 174.86997295 -7.46474556 169.92525549 -13 165.25 C-13.64867538 164.69554703 -14.29735077 164.14109406 -14.96568298 163.56983948 C-24.42752662 155.49751291 -34.17868629 148.38829692 -45 142.25 C-45.63873047 141.88535645 -46.27746094 141.52071289 -46.93554688 141.14501953 C-57.76089616 135.0756803 -68.98152496 131.24914587 -81 128.25 C-81.69689941 128.07065918 -82.39379883 127.89131836 -83.11181641 127.70654297 C-104.62999293 122.42017953 -130.81014863 123.10760761 -152 129.25 C-152.7626416 129.46430664 -153.5252832 129.67861328 -154.31103516 129.89941406 C-165.50805624 133.11864549 -175.80885225 137.63748385 -186 143.25 C-186.62471191 143.58870117 -187.24942383 143.92740234 -187.89306641 144.27636719 C-212.05748974 157.51869754 -232.96026376 177.99736885 -249.52392578 199.84521484 C-252.80560183 204.15280091 -252.80560183 204.15280091 -255 205.25 C-254.39313295 198.31675174 -252.63262474 192.00647568 -250.5625 185.375 C-250.20978027 184.24167236 -249.85706055 183.10834473 -249.49365234 181.94067383 C-232.84002341 129.44805875 -205.32601849 79.21558794 -160 46.25 C-158.41638672 45.08404297 -158.41638672 45.08404297 -156.80078125 43.89453125 C-148.56067865 38.00584784 -139.95964428 32.95549816 -131 28.25 C-130.29697754 27.87875 -129.59395508 27.5075 -128.86962891 27.125 C-99.9124729 12.06126384 -68.18324599 5.05136515 -36 1.25 C-35.12102051 1.14397461 -34.24204102 1.03794922 -33.33642578 0.92871094 C-22.27643734 -0.1972649 -11.10454656 0.00601248 0 0 Z " fill="#37BDF8" transform="translate(255,306.75)"/>
</svg>
