<svg xmlns="http://www.w3.org/2000/svg" viewBox="0 0 24 24" id="webstorm"><linearGradient id="a" x1="-221.58" x2="-221.262" y1="-87.717" y2="-86.572" gradientTransform="translate(4336.313 1713.723) scale(19.5312)" gradientUnits="userSpaceOnUse"><stop offset=".28" stop-color="#00cdd7"></stop><stop offset=".94" stop-color="#2086d7"></stop></linearGradient><path fill="url(#a)" d="M3.225 21.675 0 2.512 6 .037l3.788 2.25L13.313.412l7.275 2.812L16.5 24 3.225 21.675z"></path><linearGradient id="b" x1="-221.481" x2="-220.943" y1="-87.571" y2="-86.782" gradientTransform="translate(4336.313 1713.723) scale(19.5312)" gradientUnits="userSpaceOnUse"><stop offset=".14" stop-color="#fff045"></stop><stop offset=".37" stop-color="#00cdd7"></stop></linearGradient><path fill="url(#b)" d="M24 8.137 20.888.487 15.3 0 6.6 8.325l2.325 10.762 4.387 3.038L24 15.787l-2.625-4.912L24 8.137z"></path><linearGradient id="c" x1="-220.947" x2="-220.876" y1="-87.475" y2="-87.224" gradientTransform="translate(4336.313 1713.723) scale(19.5312)" gradientUnits="userSpaceOnUse"><stop offset=".28" stop-color="#00cdd7"></stop><stop offset=".94" stop-color="#2086d7"></stop></linearGradient><path fill="url(#c)" d="m19.2 6.975 2.175 3.9L24 8.137l-1.913-4.762-2.887 3.6z"></path><path d="M4.5 4.5h15v15h-15v-15z"></path><path fill="#FFF" d="M5.925 16.688h5.625v.938H5.925v-.938zm7.35-4.913.787-.975c.562.45 1.125.75 1.838.75.562 0 .9-.225.9-.6 0-.337-.225-.525-1.238-.788-1.237-.337-2.025-.675-2.025-1.913v-.037c0-1.125.9-1.875 2.137-1.875a3.668 3.668 0 0 1 2.287.788l-.712 1.05a2.857 2.857 0 0 0-1.575-.6c-.488 0-.788.225-.788.562 0 .413.263.562 1.313.825 1.237.338 1.95.788 1.95 1.875 0 1.238-.938 1.95-2.25 1.95a4.32 4.32 0 0 1-2.624-1.012zm-1.2-5.325-.938 3.6-1.05-3.6h-1.05l-1.05 3.6-.937-3.6H5.588l1.8 6.225H8.55l1.012-3.6 1.012 3.6h1.163l1.8-6.225h-1.462z"></path></svg>