<?xml version="1.0" standalone="no"?>
<!DOCTYPE svg PUBLIC "-//W3C//DTD SVG 20010904//EN"
 "http://www.w3.org/TR/2001/REC-SVG-20010904/DTD/svg10.dtd">
<svg version="1.0" xmlns="http://www.w3.org/2000/svg"
 width="352.000000pt" height="331.000000pt" viewBox="0 0 352.000000 331.000000"
 preserveAspectRatio="xMidYMid meet">

<g transform="translate(0.000000,331.000000) scale(0.100000,-0.100000)"
fill="#000000" stroke="none">
<path d="M406 3294 c-141 -34 -281 -144 -345 -272 -64 -127 -62 -70 -59 -1394
l3 -1203 23 -65 c55 -155 173 -274 329 -333 57 -22 64 -22 736 -25 l678 -3 29
30 c47 46 38 106 -20 136 -25 13 -118 15 -674 15 -628 0 -647 1 -701 21 -73
27 -156 104 -192 177 l-28 57 -3 1043 -2 1042 1582 -2 1583 -3 3 -575 c2 -316
0 -743 -4 -948 l-6 -373 -67 3 -66 3 -5 193 -5 194 -28 24 c-36 31 -78 31
-114 0 l-28 -24 0 -480 0 -480 24 -26 c27 -29 83 -35 112 -13 35 27 39 54 39
246 l0 191 23 5 c13 4 43 5 68 3 l44 -3 5 -203 5 -204 28 -24 c38 -32 90 -32
122 1 l25 24 0 1403 c0 1548 4 1457 -63 1582 -59 111 -162 199 -293 248 l-59
23 -1320 2 c-1114 1 -1329 -1 -1379 -13z m2736 -197 c68 -33 131 -95 163 -158
24 -46 45 -143 45 -206 l0 -33 -1586 0 -1586 0 4 88 c3 70 10 98 32 142 33 66
76 113 134 147 93 55 17 52 1427 50 l1310 -2 57 -28z"/>
<path d="M629 1991 c-162 -193 -295 -359 -297 -371 -3 -15 2 -20 20 -19 18 0
89 79 313 348 162 193 290 355 290 366 0 56 -41 15 -326 -324z"/>
<path d="M419 2298 c-104 -60 -103 -218 1 -277 111 -62 244 13 244 139 0 126
-135 202 -245 138z m141 -96 c26 -32 25 -55 -3 -88 -45 -52 -127 -23 -127 45
0 74 84 102 130 43z"/>
<path d="M705 1918 c-56 -32 -90 -101 -80 -164 8 -59 73 -128 128 -138 108
-20 205 67 195 176 -9 84 -65 139 -150 145 -42 3 -62 -1 -93 -19z m135 -88
c48 -48 2 -139 -63 -126 -40 8 -55 23 -63 61 -13 68 77 114 126 65z"/>
<path d="M1162 1658 c-17 -17 -15 -35 4 -42 26 -10 428 -6 444 4 12 7 12 13 4
27 -10 16 -33 18 -225 21 -159 2 -218 -1 -227 -10z"/>
<path d="M1983 1050 c-27 -11 -43 -40 -43 -79 0 -73 33 -91 165 -91 73 0 95
-3 95 -13 0 -8 -59 -160 -132 -338 -127 -312 -132 -327 -133 -397 0 -71 1 -75
33 -103 l32 -29 189 0 188 0 27 26 c37 37 35 86 -3 125 -29 29 -30 29 -155 29
-69 0 -126 2 -126 5 0 3 68 175 151 382 84 208 154 386 156 396 8 27 -16 73
-43 86 -30 13 -368 14 -401 1z"/>
<path d="M2670 1049 c-75 -10 -107 -30 -135 -85 -17 -34 -20 -59 -20 -189 0
-199 8 -214 164 -296 35 -18 77 -46 92 -62 28 -27 29 -33 29 -118 0 -118 -6
-129 -74 -129 -67 0 -77 11 -84 95 -4 55 -9 69 -30 85 -34 27 -68 25 -99 -6
-25 -25 -26 -28 -20 -123 10 -185 56 -226 248 -219 124 4 147 15 189 89 22 39
25 58 28 176 7 231 -3 252 -150 330 -134 71 -138 76 -138 173 0 104 8 120 63
120 59 0 69 -10 78 -77 12 -88 64 -119 124 -71 27 21 27 22 23 119 -3 79 -8
104 -24 126 -41 56 -133 78 -264 62z"/>
</g>
</svg>
